# xmcd
#
# Track frame offsets:
#	150
#	11747
#	28322
#	45760
#	57875
#	70887
#	84087
#	99705
#	120720
#	134465
#	146102
#	158272
#	176897
#
# Disc length: 2520 seconds
#
# Revision: 4
# Processed by: cddbd v1.4PL0 Copyright (c) Steve Scherf et al.
# Submitted via: audiograbber 1.80.04
#
DISCID=aa09d60d
DTITLE=Kim Carson - Tonkabilly
DYEAR=1998
DGENRE=Country
TTITLE0=(Rockin') Where's A Jukebox
TTITLE1=Around The Lakeside
TTITLE2=Making Plans
TTITLE3=Close Up The Honky Tonks
TTITLE4=Over My Shoulder
TTITLE5=The Man I Got
TTITLE6=Shotgun Rider
TTITLE7=I Keep Holding On
TTITLE8=Tell Me I'm Wrong
TTITLE9=I Gotta Get Drunk
TTITLE10=Where's A Jukebox
TTITLE11=Fast Enough
TTITLE12=Louisiana Christmas
EXTD=kick ass!
EXTT0=
EXTT1=
EXTT2=
EXTT3=
EXTT4=
EXTT5=
EXTT6=
EXTT7=
EXTT8=
EXTT9=
EXTT10=
EXTT11=
EXTT12=
PLAYORDER=
